<svg width="20" height="20" viewBox="0 0 20 20" fill="none" xmlns="http://www.w3.org/2000/svg">
<path d="M15.7143 8.57143C15.7143 9.60566 15.3646 10.5618 14.6652 11.4397C13.9658 12.3177 13.0115 13.0115 11.8025 13.5212C10.5934 14.0309 9.27827 14.2857 7.85714 14.2857C7.21726 14.2857 6.5625 14.2262 5.89286 14.1071C4.97024 14.7619 3.93601 15.2381 2.79018 15.5357C2.52232 15.6027 2.20238 15.6622 1.83036 15.7143H1.79688C1.71503 15.7143 1.63876 15.6845 1.56808 15.625C1.4974 15.5655 1.45461 15.4874 1.43973 15.3906C1.43229 15.3683 1.42857 15.3441 1.42857 15.3181C1.42857 15.292 1.43043 15.2679 1.43415 15.2455C1.43787 15.2232 1.44531 15.2009 1.45647 15.1786L1.48438 15.1228L1.52344 15.0614L1.56808 15.0056L1.6183 14.9498L1.66295 14.8996C1.70015 14.8549 1.78571 14.7619 1.91964 14.6205C2.05357 14.4792 2.1503 14.3694 2.20982 14.2913C2.26935 14.2132 2.35305 14.1053 2.46094 13.9676C2.56882 13.83 2.66183 13.6868 2.73996 13.538C2.81808 13.3891 2.89435 13.2255 2.96875 13.0469C2.04613 12.5112 1.32068 11.8527 0.792411 11.0714C0.264137 10.2902 0 9.45685 0 8.57143C0 7.53721 0.349702 6.58111 1.04911 5.70313C1.74851 4.82515 2.70275 4.13133 3.91183 3.62166C5.12091 3.11198 6.43601 2.85715 7.85714 2.85715C9.27827 2.85715 10.5934 3.11198 11.8025 3.62166C13.0115 4.13133 13.9658 4.82515 14.6652 5.70313C15.3646 6.58111 15.7143 7.53721 15.7143 8.57143ZM20 11.4286C20 12.3214 19.7359 13.1566 19.2076 13.9342C18.6793 14.7117 17.9539 15.3683 17.0313 15.904C17.1057 16.0826 17.1819 16.2463 17.26 16.3951C17.3382 16.5439 17.4312 16.6871 17.5391 16.8248C17.6469 16.9624 17.7307 17.0703 17.7902 17.1484C17.8497 17.2266 17.9464 17.3363 18.0804 17.4777C18.2143 17.6191 18.2999 17.7121 18.3371 17.7567C18.3445 17.7641 18.3594 17.7809 18.3817 17.8069C18.404 17.833 18.4208 17.8516 18.4319 17.8627C18.4431 17.8739 18.458 17.8925 18.4766 17.9185C18.4952 17.9446 18.5082 17.965 18.5156 17.9799L18.5435 18.0357L18.5658 18.1027L18.5714 18.1752L18.5603 18.2478C18.5379 18.3519 18.4896 18.4338 18.4152 18.4933C18.3408 18.5528 18.2589 18.5789 18.1696 18.5714C17.7976 18.5193 17.4777 18.4598 17.2098 18.3929C16.064 18.0952 15.0298 17.6191 14.1071 16.9643C13.4375 17.0833 12.7827 17.1429 12.1429 17.1429C10.1265 17.1429 8.37054 16.6518 6.875 15.6696C7.30655 15.6994 7.63393 15.7143 7.85714 15.7143C9.05506 15.7143 10.2046 15.5469 11.3058 15.2121C12.407 14.8772 13.3891 14.3973 14.2522 13.7723C15.1823 13.0878 15.8966 12.2991 16.3951 11.4063C16.8936 10.5134 17.1429 9.56846 17.1429 8.57143C17.1429 7.99852 17.0573 7.43304 16.8862 6.875C17.846 7.40328 18.6049 8.06548 19.1629 8.86161C19.721 9.65774 20 10.5134 20 11.4286Z" fill="white"/>
</svg>
