<svg width="20" height="20" viewBox="0 0 20 20" fill="none" xmlns="http://www.w3.org/2000/svg">
<path d="M5 7H15M5 11H15M19 18L15.6757 16.3378C15.4237 16.2118 15.2977 16.1488 15.1656 16.1044C15.0484 16.065 14.9277 16.0365 14.8052 16.0193C14.6672 16 14.5263 16 14.2446 16H4.2C3.07989 16 2.51984 16 2.09202 15.782C1.71569 15.5903 1.40973 15.2843 1.21799 14.908C1 14.4802 1 13.9201 1 12.8V5.2C1 4.07989 1 3.51984 1.21799 3.09202C1.40973 2.71569 1.71569 2.40973 2.09202 2.21799C2.51984 2 3.0799 2 4.2 2H15.8C16.9201 2 17.4802 2 17.908 2.21799C18.2843 2.40973 18.5903 2.71569 18.782 3.09202C19 3.51984 19 4.0799 19 5.2V18Z" stroke="white" stroke-width="1.5" stroke-linecap="round" stroke-linejoin="round"/>
</svg>
