<svg width="20" height="20" viewBox="0 0 20 20" fill="none" xmlns="http://www.w3.org/2000/svg">
<g clip-path="url(#clip0_51_8)">
<path fill-rule="evenodd" clip-rule="evenodd" d="M17.0859 2.90417C15.2061 1.03232 12.7059 0.000949696 10.042 0C4.55283 0 0.08547 4.44221 0.08356 9.90249C0.082605 11.648 0.54147 13.3518 1.41288 14.8533L0 19.9854L5.27909 18.6083C6.7335 19.3976 8.37128 19.813 10.0377 19.8135H10.042C15.5302 19.8135 19.9981 15.3708 20 9.91055C20.0009 7.26425 18.9662 4.77603 17.0859 2.90417Z" fill="#25D366"/>
<path fill-rule="evenodd" clip-rule="evenodd" d="M14.582 11.9766C14.3332 11.8527 13.1099 11.2544 12.8816 11.1718C12.6534 11.0891 12.4877 11.0478 12.322 11.2957C12.1563 11.5436 11.6793 12.101 11.5342 12.2658C11.389 12.431 11.2438 12.4515 10.9951 12.3275C10.7463 12.2036 9.94462 11.9424 8.99396 11.0996C8.25435 10.4433 7.75485 9.63325 7.60973 9.38535C7.46457 9.13751 7.59446 9.00359 7.71857 8.8806C7.83029 8.7695 7.96735 8.59143 8.09196 8.44707C8.21662 8.3027 8.25768 8.19922 8.34073 8.03441C8.42385 7.86917 8.38229 7.72486 8.32023 7.60088C8.25812 7.47695 7.76062 6.25894 7.5529 5.76369C7.3509 5.28126 7.14562 5.34679 6.99329 5.33872C6.84812 5.33159 6.68246 5.33017 6.51629 5.33017C6.35012 5.33017 6.08079 5.3919 5.85257 5.63977C5.62435 5.88762 4.98163 6.4864 4.98163 7.70392C4.98163 8.92143 5.87312 10.0986 5.99773 10.2639C6.12235 10.4291 7.75246 12.9282 10.2483 14.0004C10.8418 14.2554 11.3055 14.4078 11.6669 14.5218C12.2628 14.7103 12.8052 14.6838 13.234 14.6201C13.712 14.5489 14.7061 14.0213 14.9133 13.4434C15.1206 12.8655 15.1206 12.3698 15.0585 12.2667C14.9965 12.1637 14.8303 12.1015 14.5815 11.9776L14.582 11.9766Z" fill="white"/>
</g>
<defs>
<clipPath id="clip0_51_8">
<rect width="20" height="20" fill="white"/>
</clipPath>
</defs>
</svg>
