<svg width="20" height="20" viewBox="0 0 20 20" fill="none" xmlns="http://www.w3.org/2000/svg">
<g clip-path="url(#clip0_1_4)">
<path d="M10 20C15.5228 20 20 15.5228 20 10C20 4.47715 15.5228 0 10 0C4.47715 0 0 4.47715 0 10C0 15.5228 4.47715 20 10 20Z" fill="url(#paint0_linear_1_4)"/>
<path fill-rule="evenodd" clip-rule="evenodd" d="M4.52657 9.89443C7.44177 8.62432 9.3857 7.78699 10.3583 7.38243C13.1354 6.22734 13.7125 6.02669 14.0886 6.02006C14.1714 6.0186 14.3563 6.0391 14.4761 6.13632C14.5773 6.21841 14.6051 6.32931 14.6184 6.40714C14.6318 6.48497 14.6484 6.66227 14.6352 6.8008C14.4847 8.38204 13.8335 12.2193 13.5022 13.9903C13.362 14.7397 13.086 14.9909 12.8188 15.0155C12.2381 15.069 11.7971 14.6318 11.2347 14.2631C10.3545 13.6861 9.85732 13.327 9.003 12.764C8.01569 12.1134 8.65572 11.7558 9.21839 11.1714C9.36564 11.0184 11.9243 8.69112 11.9738 8.48C11.98 8.45359 11.9858 8.35517 11.9273 8.3032C11.8688 8.25123 11.7825 8.269 11.7202 8.28313C11.632 8.30317 10.226 9.23249 7.50219 11.0711C7.1031 11.3452 6.74161 11.4787 6.41773 11.4717C6.06068 11.464 5.37385 11.2698 4.86327 11.1038C4.23702 10.9003 3.73929 10.7926 3.78263 10.4469C3.8052 10.2668 4.05318 10.0827 4.52657 9.89443Z" fill="white"/>
</g>
<defs>
<linearGradient id="paint0_linear_1_4" x1="1000" y1="0" x2="1000" y2="1985.17" gradientUnits="userSpaceOnUse">
<stop stop-color="#2AABEE"/>
<stop offset="1" stop-color="#229ED9"/>
</linearGradient>
<clipPath id="clip0_1_4">
<rect width="20" height="20" fill="white"/>
</clipPath>
</defs>
</svg>
