<svg width="20" height="20" viewBox="0 0 20 20" fill="none" xmlns="http://www.w3.org/2000/svg">
<path fill-rule="evenodd" clip-rule="evenodd" d="M2.23741 8.4574C7.06923 6.34056 10.2912 4.945 11.9033 4.27074C16.5063 2.34558 17.4627 2.01116 18.0861 2.00012C18.2232 1.99769 18.5298 2.03186 18.7284 2.19389C18.8961 2.33071 18.9422 2.51553 18.9643 2.64524C18.9864 2.77496 19.0139 3.07046 18.992 3.30136C18.7426 5.93675 17.6633 12.3322 17.1142 15.2838C16.8818 16.5328 16.4244 16.9516 15.9815 16.9926C15.0189 17.0816 14.288 16.3529 13.3558 15.7384C11.897 14.7769 11.0729 14.1783 9.65691 13.24C8.02048 12.1556 9.08131 11.5596 10.0139 10.5856C10.258 10.3307 14.4988 6.45188 14.5809 6.10001C14.5912 6.056 14.6007 5.89197 14.5038 5.80535C14.4069 5.71873 14.2639 5.74835 14.1606 5.77191C14.0143 5.8053 11.6839 7.35418 7.16938 10.4185C6.5079 10.8753 5.90875 11.0978 5.37193 11.0862C4.78013 11.0733 3.64175 10.7497 2.79548 10.4731C1.75749 10.1338 0.932524 9.95442 1.00436 9.37821C1.04178 9.07809 1.45279 8.77115 2.23741 8.4574Z" fill="white"/>
</svg>
