<svg width="20" height="20" viewBox="0 0 20 20" fill="none" xmlns="http://www.w3.org/2000/svg">
<path fill-rule="evenodd" clip-rule="evenodd" d="M2.16866 9.02691C6.73205 7.05119 9.77503 5.74867 11.2976 5.11936C15.6448 3.32254 16.5481 3.01042 17.1369 3.00011C17.2664 2.99784 17.5559 3.02973 17.7435 3.18096C17.9018 3.30866 17.9454 3.48116 17.9663 3.60223C17.9871 3.7233 18.0131 3.9991 17.9924 4.2146C17.7569 6.6743 16.7375 12.6433 16.2189 15.3983C15.9995 16.564 15.5674 16.9548 15.1492 16.9931C14.2401 17.0762 13.5498 16.3961 12.6694 15.8225C11.2916 14.9251 10.5133 14.3664 9.17597 13.4907C7.63045 12.4786 8.63235 11.9223 9.51313 11.0132C9.74364 10.7753 13.7489 7.15509 13.8264 6.82668C13.8361 6.7856 13.8451 6.6325 13.7536 6.55166C13.6621 6.47081 13.527 6.49846 13.4295 6.52045C13.2913 6.55161 11.0904 7.99723 6.82663 10.8573C6.2019 11.2836 5.63604 11.4913 5.12904 11.4804C4.57012 11.4684 3.49499 11.1664 2.69573 10.9082C1.71541 10.5915 0.936273 10.4241 1.00412 9.88633C1.03946 9.60621 1.42764 9.31974 2.16866 9.02691Z" fill="white"/>
</svg>
