<svg id="Phone_black.svg" xmlns="http://www.w3.org/2000/svg" width="9" height="12" viewBox="0 0 9 12"><defs><style>.cls-1{fill:#222;fill-rule:evenodd}</style></defs><path id="Shape_51_copy_4" data-name="Shape 51 copy 4" class="cls-1" d="M6.53 8.348a22.378 22.378 0 0 0 2.09 1.18.6.6 0 0 1 .314.826l-.12.417a.956.956 0 0 1-.57.7 4.408 4.408 0 0 1-1.51.533c-1.447.03-2.727-1.18-3.623-2.19a13.25 13.25 0 0 1-1.516-2.078 13.082 13.082 0 0 1-1.07-2.33C.085 4.134-.34 2.437.41 1.217A4.36 4.36 0 0 1 1.63.198a.98.98 0 0 1 .9-.135L2.96.17a.623.623 0 0 1 .55.7c-.006.927-.02 1.592.012 2.354.012.316-.112.36-.4.472l-.467.18a.553.553 0 0 0-.455.677 7.768 7.768 0 0 0 2.5 4.26.567.567 0 0 0 .824-.05l.39-.307a.44.44 0 0 1 .618-.107z"/></svg>